<svg width="32" height="32" viewBox="0 0 32 32" fill="none" xmlns="http://www.w3.org/2000/svg">
<path d="M21.7747 26.3169C20.3963 27.6538 18.8913 27.4427 17.4426 26.8095C15.9094 26.1621 14.5029 26.134 12.8853 26.8095C10.8599 27.6819 9.7909 27.4286 8.58126 26.3169C1.71727 19.2386 2.72999 8.45918 10.5223 8.06516C12.4212 8.16367 13.7433 9.10651 14.8545 9.19094C16.5142 8.85321 18.1036 7.88222 19.8759 8.00887C21.9998 8.17774 23.6033 9.02208 24.6582 10.5419C20.2697 13.1734 21.3106 18.9571 25.3333 20.5754C24.5316 22.6863 23.4907 24.7831 21.7607 26.331L21.7747 26.3169ZM14.7138 7.98073C14.5029 4.8426 17.0487 2.2533 19.9744 2C20.3823 5.63065 16.683 8.33253 14.7138 7.98073Z" fill="white"/>
</svg>
