<svg width="32" height="32" viewBox="0 0 32 32" fill="none" xmlns="http://www.w3.org/2000/svg">
<path d="M27.8067 13.8147C27.7947 13.7546 27.7625 13.7005 27.7154 13.6614C27.6683 13.6224 27.6092 13.6007 27.548 13.6H16.2667C16.1959 13.6 16.1281 13.6281 16.0781 13.6781C16.0281 13.7281 16 13.7959 16 13.8667V18.1333C16 18.28 16.12 18.4 16.2667 18.4H22.7813C22.2145 19.9996 21.1007 21.3474 19.6366 22.2055C18.1725 23.0636 16.4522 23.3768 14.7797 23.0896C13.1071 22.8025 11.5898 21.9336 10.4956 20.6364C9.40149 19.3392 8.80093 17.697 8.80001 16C8.80001 14.0904 9.55858 12.2591 10.9088 10.9088C12.2591 9.55857 14.0904 8.8 16 8.8C17.6761 8.79944 19.2992 9.38689 20.5867 10.46C20.6386 10.504 20.7052 10.5271 20.7733 10.5246C20.8413 10.5221 20.906 10.4943 20.9547 10.4467L23.976 7.424C24.0013 7.39883 24.0212 7.36876 24.0345 7.33563C24.0478 7.30251 24.0542 7.26701 24.0534 7.23133C24.0525 7.19564 24.0444 7.1605 24.0295 7.12807C24.0145 7.09563 23.9932 7.06657 23.9667 7.04267C21.7765 5.08181 18.9397 3.99834 16 4C13.6266 4 11.3066 4.70379 9.33316 6.02237C7.35977 7.34094 5.8217 9.21509 4.91345 11.4078C4.0052 13.6005 3.76756 16.0133 4.23058 18.3411C4.6936 20.6689 5.83649 22.8071 7.51472 24.4853C9.19295 26.1635 11.3312 27.3064 13.6589 27.7694C15.9867 28.2325 18.3995 27.9948 20.5922 27.0866C22.7849 26.1783 24.6591 24.6402 25.9776 22.6668C27.2962 20.6935 28 18.3734 28 16C28 15.2707 27.932 14.516 27.8067 13.8147Z" fill="white"/>
</svg>
