<svg width="123" height="123" viewBox="0 0 123 123" fill="none" xmlns="http://www.w3.org/2000/svg">
<g clip-path="url(#clip0_126_1077)">
<path d="M55.2167 113.252C58.9242 107.249 64.4688 102.601 71.0273 99.999C75.5373 97.8311 80.2523 96.1143 85.1006 94.8791C90.7381 93.0188 96.6164 91.9835 102.551 91.8093C104.806 91.4505 104.601 88.4831 101.936 88.2781C96.0315 87.5103 90.0378 87.7879 84.2293 89.0981C80.8673 89.7473 77.5924 90.704 74.4047 91.9681C71.182 93.2382 68.0963 94.8316 65.1951 96.7241C58.8665 100.363 53.8779 105.942 50.9681 112.637C50.2506 115.302 54.1404 115.097 55.2167 113.252Z" fill="#1E1E1E"/>
<path d="M94.6177 73.0312C84.1644 68.8439 73.1084 66.3558 61.869 65.6615V65.4053C66.6236 55.4649 70.6755 45.2034 73.9947 34.6963C76.9437 26.5796 76.8344 17.6666 73.6872 9.62475C71.3349 4.80725 72.6622 4.80725 70.3611 2.71113C67.9054 0.7139 64.7646 -0.241041 61.6127 0.0512515C57.9496 0.346582 54.3385 1.10427 50.8656 2.30625C44.1307 4.77471 37.7067 8.02026 31.7237 11.9771C25.6938 15.6438 19.977 19.8023 14.6319 24.4104C14.3183 24.7432 14.1437 25.1831 14.1437 25.6404C14.1437 26.0976 14.3183 26.5376 14.6319 26.8704C14.9585 27.1959 15.4008 27.3786 15.8619 27.3786C16.323 27.3786 16.7653 27.1959 17.0919 26.8704C22.4196 22.7295 28.0661 19.016 33.9787 15.7645C39.7373 12.2904 45.8853 9.50708 52.2955 7.47225C55.42 6.50668 58.6537 5.93846 61.9202 5.781C63.5244 5.64263 65.1285 6.09875 66.42 7.06225C66.7275 7.06225 66.42 7.7285 66.42 8.08725C66.215 8.73983 65.9246 9.35483 65.5487 9.93225C64.7536 11.0951 63.864 12.1905 62.8889 13.2071C57.6276 17.188 51.8849 20.489 45.797 23.0318C33.0562 29.1715 18.4192 35.3113 17.753 35.465C16.7221 35.6893 15.6803 35.8603 14.6319 35.9775H12.8381C12.4281 35.9775 12.8381 34.7988 13.2481 33.5175C13.3552 33.2865 13.4031 33.0324 13.3878 32.7783C13.3724 32.5241 13.2941 32.2777 13.16 32.0613C13.0258 31.8448 12.84 31.6651 12.6193 31.5382C12.3985 31.4113 12.1497 31.3412 11.8951 31.3343C11.589 31.3227 11.2864 31.4029 11.0262 31.5646C10.7659 31.7262 10.5599 31.9619 10.4345 32.2414C9.74925 33.5527 9.39136 35.0104 9.39136 36.49C9.39136 37.9696 9.74925 39.4273 10.4345 40.7386C13.8502 47.935 19.3637 53.9292 26.2502 57.933C35.29 63.3897 45.1611 67.3315 55.473 69.6026C49.687 79.8746 45.3952 90.9191 42.7271 102.403C41.1384 110.336 41.8559 117.193 45.3409 120.52C46.6272 121.496 48.0947 122.207 49.658 122.612C51.2214 123.016 52.8495 123.106 54.448 122.877C64.4533 121.451 74.1643 118.427 83.2095 113.919C92.3535 109.905 100.95 104.745 108.793 98.564C112.483 95.2379 113.913 92.0143 113.56 89.9694C112.432 83.7271 105.262 77.4798 94.6177 73.0312ZM28.4027 54.6581C22.0179 51.1384 16.83 45.7917 13.5044 39.3036C15.076 39.4847 16.646 39.4847 18.2142 39.3036C30.0372 35.4324 41.6225 30.8701 52.9105 25.6404C58.0455 23.5242 62.8396 20.6609 67.1375 17.1431C68.6442 15.621 69.9357 13.899 70.9812 12.0284C72.8467 17.1278 73.1491 22.6679 71.8474 27.9415C68.6105 40.1221 64.0099 51.8986 58.1329 63.0478C57.7741 63.8678 57.4666 64.5853 57.2616 65.2002C47.1236 63.3061 37.3751 59.7437 28.4027 54.6581ZM103.93 94.8791C94.7589 101.643 84.7458 107.184 74.1434 111.361C68.126 113.954 61.8228 115.826 55.3654 116.937C53.3312 117.474 51.1729 117.274 49.2717 116.373C47.6317 115.451 47.478 112.945 47.3755 110.387C47.4143 106.306 47.9828 102.248 49.0667 98.3129C51.4738 89.0708 54.9067 80.1267 59.3014 71.6475L60.0701 70.2637C71.1657 71.0581 82.0564 73.6463 92.3115 77.941C98.3196 79.9062 103.516 83.79 107.102 88.9956C107.666 89.4569 108.081 91.5069 103.93 94.8791Z" fill="#1E1E1E"/>
</g>
<defs>
<clipPath id="clip0_126_1077">
<rect width="123" height="123" fill="white"/>
</clipPath>
</defs>
</svg>
